<?xml version="1.0" encoding="utf-8"?>
<!-- Generator: Adobe Illustrator 27.5.0, SVG Export Plug-In . SVG Version: 6.00 Build 0)  -->
<svg version="1.1" xmlns="http://www.w3.org/2000/svg" xmlns:xlink="http://www.w3.org/1999/xlink" x="0px" y="0px"
	 viewBox="0 0 500 500" style="enable-background:new 0 0 500 500;" xml:space="preserve">
<g id="Background_Simple">
	<g>
		<path style="fill:#92E3A9;" d="M463.141,328.327c-20.798,42.743-57.58,87.106-102.187,95.756
			c-67.4,13.077-82.884,70.518-197.726,49.726c-17.906-3.24-34.181-8.303-48.875-14.884c-7.9-3.537-15.343-7.526-22.326-11.91
			C28.603,407.297,2.383,334.956,8.874,263.777c8.523-93.619,72.212-130.312,113.224-151.302
			c41.012-20.99,99.667-115.657,212.735-96.216c17.237,2.973,34.17,7.934,50.243,15.267c36.691,16.719,72.141,47.622,89.726,88.245
			c1.32,3.052,2.553,6.159,3.71,9.312C501.072,190.758,491.498,270.056,463.141,328.327z"/>
		<path style="opacity:0.7;fill:#FFFFFF;" d="M463.141,328.327c-20.798,42.743-57.58,87.106-102.187,95.756
			c-67.4,13.077-82.884,70.518-197.726,49.726c-17.906-3.24-34.181-8.303-48.875-14.884c-7.9-3.537-15.343-7.526-22.326-11.91
			C28.603,407.297,2.383,334.956,8.874,263.777c8.523-93.619,72.212-130.312,113.224-151.302
			c41.012-20.99,99.667-115.657,212.735-96.216c17.237,2.973,34.17,7.934,50.243,15.267c36.691,16.719,72.141,47.622,89.726,88.245
			c1.32,3.052,2.553,6.159,3.71,9.312C501.072,190.758,491.498,270.056,463.141,328.327z"/>
	</g>
</g>
<g id="Stars">
	<g>
		<polygon style="fill:#92E3A9;" points="447.603,161.58 430.842,183.068 446.099,205.649 420.483,196.349 403.722,217.837 
			404.652,190.601 379.036,181.301 405.226,173.768 406.155,146.532 421.412,169.113 		"/>
		<polygon style="fill:#92E3A9;" points="446.763,416.937 429.379,418.735 425.718,435.823 418.636,419.846 401.253,421.644 
			414.259,409.972 407.177,393.995 422.298,402.758 435.304,391.086 431.642,408.174 		"/>
		<polygon style="fill:#92E3A9;" points="99.847,379.977 85.858,392.223 93.181,409.311 77.213,399.791 63.224,412.037 
			67.343,393.907 51.374,384.388 69.889,382.703 74.008,364.574 81.332,381.662 		"/>
		<polygon style="fill:#92E3A9;" points="36.847,144.78 65.01,172.206 99.796,153.898 82.415,189.157 110.577,216.583 
			71.673,210.948 54.291,246.207 47.628,207.465 8.724,201.83 43.51,183.522 		"/>
		<polygon style="fill:#92E3A9;" points="286.858,370.683 280.444,376.617 284.106,384.551 276.48,380.285 270.067,386.219 
			271.768,377.648 264.142,373.382 272.819,372.351 274.52,363.78 278.181,371.714 		"/>
		<polygon style="fill:#92E3A9;" points="144.366,460.616 133.179,459.759 128.907,470.134 126.265,459.23 115.077,458.373 
			124.632,452.491 121.99,441.586 130.537,448.855 140.091,442.973 135.819,453.348 		"/>
		<polygon style="fill:#92E3A9;" points="408.963,54.901 400.779,65.261 408.102,76.246 395.72,71.663 387.536,82.023 
			388.068,68.831 375.686,64.249 388.397,60.678 388.929,47.486 396.252,58.472 		"/>
	</g>
</g>
<g id="Bowtie">
	<g>
		<path style="fill:#263238;stroke:#263238;stroke-miterlimit:10;" d="M353.185,376.23c0,0-30.505,16.15-41.63,23.327
			c-11.125,7.178-16.509,17.944-16.867,19.38c-0.359,1.436,2.153,24.763,2.153,24.763l8.972,8.972c0,0,17.226,8.613,32.299,11.843
			c15.073,3.23,26.557,10.408,30.864,3.589c4.307-6.819,4.307-44.143,2.153-50.244c-2.153-6.101-10.408-25.481-12.202-31.223
			C357.133,380.896,356.056,375.154,353.185,376.23z"/>
		<polygon style="fill:#263238;stroke:#263238;stroke-miterlimit:10;" points="271.791,421.25 277.446,448.849 298.485,445.23 
			294.687,418.938 		"/>
		<path style="fill:none;stroke:#6E6E6E;stroke-miterlimit:10;" d="M297.128,428.941c0,0,27.826-7.465,39.363-9.954
			c11.537-2.488,21.265-12.669,14.931-13.347c-6.334-0.679-9.501,5.656-10.18,6.108"/>
		<path style="fill:none;stroke:#6E6E6E;stroke-miterlimit:10;" d="M297.807,435.502c0,0,33.482-2.036,34.386-0.226"/>
		<path style="fill:#263238;stroke:#263238;stroke-miterlimit:10;" d="M271.791,421.25c0,0-6.561-7.692-18.098-13.121
			c-11.538-5.429-47.96-12.442-48.639-9.954c-0.679,2.488-8.37,32.124-5.656,47.96c2.715,15.836,13.347,40.947,16.288,41.173
			c2.941,0.226,29.636-10.406,41.399-18.324c11.764-7.918,20.36-20.134,20.36-20.134L271.791,421.25z"/>
		<path style="fill:none;stroke:#6E6E6E;stroke-miterlimit:10;" d="M275.184,439.574c0,0-22.396,2.715-33.934,7.013
			c0,0-19.456,4.525-20.36,9.049c-0.905,4.525,6.561,3.393,16.062-0.905"/>
		<path style="fill:none;stroke:#6E6E6E;stroke-miterlimit:10;" d="M274.053,432.561c0,0-22.685,1.227-29.636,2.262
			c-10.633,1.584-11.085-7.918-5.656-8.144"/>
		<path style="opacity:0.08;fill:#FFFFFF;" d="M348.91,383.396c0,0-39.398,18.184-42.808,24.245
			c-3.409,6.061-5.682,18.563-2.273,16.668c3.409-1.894,21.214-20.078,29.927-26.518C342.47,391.351,351.94,382.638,348.91,383.396z
			"/>
		<path style="opacity:0.08;fill:#FFFFFF;" d="M342.848,420.142c0,0,17.805-5.304,17.047,0.758
			c-0.758,6.061-19.32,6.44-31.443,8.713c-12.122,2.273-31.443,7.198-28.033,3.031c3.409-4.167,6.061-4.925,15.911-7.577
			C326.18,422.415,342.848,420.142,342.848,420.142z"/>
		<path style="opacity:0.08;fill:#FFFFFF;" d="M266.325,433.401c0,0-33.337,2.652-40.156,2.652c-6.819,0-12.501-7.955-13.638-3.41
			c-1.136,4.546,1.137,14.774,9.85,15.153c8.713,0.379,29.928-7.198,38.641-7.955C269.734,439.084,281.099,436.432,266.325,433.401z
			"/>
		<path style="opacity:0.08;fill:#FFFFFF;" d="M259.127,417.49c0,0-14.774-8.713-28.033-11.744
			c-13.259-3.031-22.73-6.061-23.866-1.515c-1.136,4.546-2.273,14.017,0.379,17.426c2.652,3.409,12.88-4.925,27.654-3.788
			c14.774,1.137,28.033,7.577,27.654,4.925C262.537,420.142,259.127,417.49,259.127,417.49z"/>
		<path style="opacity:0.08;fill:#FFFFFF;" d="M318.225,452.721c0,0,34.473,13.638,35.989,10.986
			c1.515-2.652-10.607-11.365-6.061-13.259c4.546-1.894,17.047-3.031,18.563,6.061c1.515,9.092-1.515,12.123-6.44,12.123
			S325.801,458.783,318.225,452.721z"/>
		<path style="opacity:0.08;fill:#FFFFFF;" d="M207.607,459.919c0,0,5.682,22.351,9.471,23.866
			c3.788,1.515,29.549-11.365,36.746-15.153c7.198-3.788,16.29-12.501,18.941-15.532c2.652-3.031,3.031-7.198,1.137-7.955
			c-1.894-0.758-6.819,3.409-14.396,7.955c-7.577,4.546-17.426,14.396-23.866,15.911c-6.44,1.515-6.061-5.682-13.638-6.819
			S207.607,459.919,207.607,459.919z"/>
		<path style="opacity:0.08;fill:#FFFFFF;" d="M293.704,420.309c0,0-19.959,1.86-19.587,2.479c0.372,0.62,0.62,5.703,1.364,6.199
			c0.744,0.496,19.339-0.992,19.711-1.984C295.564,426.012,293.704,420.309,293.704,420.309z"/>
	</g>
</g>
<g id="Hat">
	<g>
		<path style="fill:#263238;stroke:#263238;stroke-miterlimit:10;" d="M400.23,293.504c0,0,24.816-8.543,28.07-25.629
			c3.254-17.086-23.595-18.713-58.581-4.475c-34.986,14.238-75.667,27.663-93.974,31.325c-18.307,3.661-27.257,4.882-27.257,4.882
			S342.463,316.693,400.23,293.504z"/>
		<g>
			<path style="fill:#263238;stroke:#263238;stroke-miterlimit:10;" d="M148.412,287.809c0,0-2.848-63.87-17.9-109.433
				c-15.052-45.563-36.613-79.736-37.02-90.313c-0.407-10.577,58.174-55.327,129.774-66.311S345.31,36.805,351.413,44.941
				c6.102,8.136-5.289,80.549,2.034,134.656c7.323,54.106,22.375,102.11,25.222,107.806c0,0-10.17,10.984-90.72,15.052
				C207.4,306.522,148.412,287.809,148.412,287.809z"/>
			<path style="fill:#92E3A9;stroke:#263238;stroke-miterlimit:10;" d="M375.974,280.162c-2.471-7.432-6.111-19.754-9.91-35.126
				c-51.054-1.817-108.542,3.299-171.506,15.304c-17.556,3.347-33.528,6.861-47.36,10.162c0.915,10.604,1.214,17.306,1.214,17.306
				s15.103,4.789,40.45,8.995C241.033,286.192,310.078,276.395,375.974,280.162z"/>
			<path style="opacity:0.33;" d="M151.306,270.909l1.256,17.48c6.086,1.457,18.787,4.233,36.464,6.714
				c13.624-2.612,28.41-5.181,43.987-7.504l-4.966-30.849c-11.023,1.642-22.223,3.483-33.607,5.534
				C178.632,265.135,164.13,268.092,151.306,270.909z"/>
			<path style="opacity:0.25;fill:#FFFFFF;" d="M278.013,20.037c0.934,21.956,5.854,119.02,22.975,211.105
				c11.376,61.187,21.841,52.258,16.987,13.935c-4.749-37.494-10.274-125.752,7.678-214.475
				C313.38,26.038,297.219,21.849,278.013,20.037z"/>
			<path style="opacity:0.08;fill:#FFFFFF;" d="M112.141,70.469c33.828,77.067,52.032,158.975,58.112,193.754
				c6.08,34.779,14.791,40.922,7.365-15.223c-12.698-96.007-36.84-195.062-36.84-195.062c-0.292-1.247-0.658-2.435-1.074-3.576
				c-11.276,6.095-20.918,12.364-28.433,18.081C111.551,69.108,111.839,69.781,112.141,70.469z"/>
			<path style="fill:none;stroke:#263238;stroke-miterlimit:10;" d="M148.412,287.809c0,0-2.848-63.87-17.9-109.433
				c-15.052-45.563-36.613-79.736-37.02-90.313c-0.407-10.577,58.174-55.327,129.774-66.311S345.31,36.805,351.413,44.941
				c6.102,8.136-5.289,80.549,2.034,134.656c7.323,54.106,22.375,102.11,25.222,107.806c0,0-10.17,10.984-90.72,15.052
				C207.4,306.522,148.412,287.809,148.412,287.809z"/>
		</g>
		<g>
			<path style="fill:#263238;" d="M400.23,293.504c0,0-33.359,14.238-102.924,7.729c-69.565-6.509-144.012-32.138-177.371-23.595
				c-33.359,8.543-34.986,52.886,15.866,68.752c50.852,15.866,126.112,6.916,179.405-9.764
				C368.499,319.947,400.23,293.504,400.23,293.504z"/>
			<path style="opacity:0.13;fill:#FFFFFF;" d="M400.23,293.504c0,0-33.359,14.238-102.924,7.729
				c-69.565-6.509-144.012-32.138-177.371-23.595c-33.359,8.543-34.986,52.886,15.866,68.752
				c50.852,15.866,126.112,6.916,179.405-9.764C368.499,319.947,400.23,293.504,400.23,293.504z"/>
			<path style="fill:#92E3A9;" d="M366.465,304.488c0,0-55.734,13.832-113.908,13.018c-58.174-0.814-89.906-17.9-98.856-2.034
				c-8.95,15.866,38.647,28.07,93.16,25.222C301.374,337.847,357.108,314.252,366.465,304.488z"/>
			<path style="opacity:0.44;" d="M366.465,304.488c0,0-55.734,13.832-113.908,13.018c-58.174-0.814-89.906-17.9-98.856-2.034
				c-8.95,15.866,38.647,28.07,93.16,25.222C301.374,337.847,357.108,314.252,366.465,304.488z"/>
			<path style="opacity:0.44;" d="M252.557,317.506c-58.174-0.814-89.906-17.9-98.856-2.034
				c-3.955,7.011,3.138,13.306,16.986,17.905c32.22-5.197,94.825-13.102,149.788-7.148c23.484-7.731,41.091-16.63,45.989-21.74
				C366.465,304.488,310.731,318.32,252.557,317.506z"/>
			<path style="fill:none;stroke:#263238;stroke-miterlimit:10;" d="M366.465,304.488c0,0-55.734,13.832-113.908,13.018
				c-58.174-0.814-89.906-17.9-98.856-2.034c-8.95,15.866,38.647,28.07,93.16,25.222
				C301.374,337.847,357.108,314.252,366.465,304.488z"/>
			<path style="fill:none;stroke:#263238;stroke-miterlimit:10;" d="M400.23,293.504c0,0-33.359,14.238-102.924,7.729
				c-69.565-6.509-144.012-32.138-177.371-23.595c-33.359,8.543-34.986,52.886,15.866,68.752
				c50.852,15.866,126.112,6.916,179.405-9.764C368.499,319.947,400.23,293.504,400.23,293.504z"/>
		</g>
	</g>
</g>
</svg>
