<svg width="800" height="600" xmlns="http://www.w3.org/2000/svg">
 <defs>
  <linearGradient y2="0" x2="1" y1="0" x1="0" id="svg_13">
   <stop stop-opacity="0.99609" offset="0" stop-color="#7f00ff"/>
   <stop offset="1" stop-opacity="0.99219" stop-color="#ffffff"/>
  </linearGradient>
  <linearGradient y2="0" x2="0" y1="0" x1="1" id="svg_52">
   <stop stop-opacity="0.99609" offset="0" stop-color="#7f00ff"/>
   <stop offset="1" stop-opacity="0.99219" stop-color="#ffffff"/>
  </linearGradient>
  <linearGradient y2="0" x2="1" y1="0" x1="0" id="svg_79">
   <stop stop-opacity="0.99609" offset="0" stop-color="#7f00ff"/>
   <stop offset="1" stop-opacity="0.99219" stop-color="#ffffff"/>
  </linearGradient>
  <linearGradient y2="1" x2="1" y1="1" x1="0" id="svg_82">
   <stop stop-opacity="0.99609" offset="0" stop-color="#7f00ff"/>
   <stop offset="1" stop-opacity="0.99219" stop-color="#ffffff"/>
  </linearGradient>
  <linearGradient y2="0" x2="1" y1="0" x1="0" id="svg_113">
   <stop offset="0" stop-opacity="0.99609" stop-color="#3f007f"/>
   <stop offset="0.4375" stop-opacity="0.99609" stop-color="#d4aaff"/>
   <stop stop-opacity="0.99219" offset="1" stop-color="#ffffff"/>
   <stop offset="NaN" stop-opacity="0" stop-color="0"/>
   <stop offset="NaN" stop-opacity="0" stop-color="0"/>
   <stop offset="NaN" stop-opacity="0" stop-color="0"/>
   <stop offset="NaN" stop-opacity="0" stop-color="0"/>
   <stop offset="NaN" stop-opacity="0" stop-color="0"/>
   <stop offset="NaN" stop-opacity="0" stop-color="0"/>
   <stop offset="NaN" stop-opacity="0" stop-color="0"/>
   <stop offset="NaN" stop-opacity="0" stop-color="0"/>
   <stop offset="NaN" stop-opacity="0" stop-color="0"/>
   <stop offset="NaN" stop-opacity="0" stop-color="0"/>
   <stop offset="NaN" stop-opacity="0" stop-color="0"/>
   <stop offset="NaN" stop-opacity="0" stop-color="0"/>
  </linearGradient>
  <linearGradient y2="0" x2="1" y1="0" x1="0" id="svg_121">
   <stop stop-opacity="0.99609" offset="0" stop-color="#7f00ff"/>
   <stop offset="0.5" stop-opacity="0.99219" stop-color="#e8d3ff"/>
   <stop offset="1" stop-opacity="0.99609" stop-color="#7f00ff"/>
   <stop offset="NaN" stop-opacity="0" stop-color="0"/>
   <stop offset="NaN" stop-opacity="0" stop-color="0"/>
   <stop offset="NaN" stop-opacity="0" stop-color="0"/>
   <stop offset="NaN" stop-opacity="0" stop-color="0"/>
   <stop offset="NaN" stop-opacity="0" stop-color="0"/>
   <stop offset="NaN" stop-opacity="0" stop-color="0"/>
   <stop offset="NaN" stop-opacity="0" stop-color="0"/>
   <stop offset="NaN" stop-opacity="0" stop-color="0"/>
   <stop offset="NaN" stop-opacity="0" stop-color="0"/>
   <stop offset="NaN" stop-opacity="0" stop-color="0"/>
   <stop offset="NaN" stop-opacity="0" stop-color="0"/>
   <stop offset="NaN" stop-opacity="0" stop-color="0"/>
   <stop offset="NaN" stop-opacity="0" stop-color="0"/>
  </linearGradient>
 </defs>
 <g>
  <path stroke="#3f007f" id="svg_38" d="m399.99999,514.16666c-118.32412,0 -214.16666,-95.84253 -214.16666,-214.16665c0,-118.32412 95.84254,-214.16666 214.16666,-214.16666c118.32412,0 214.16666,95.84254 214.16666,214.16666c0,118.32412 -95.84254,214.16665 -214.16666,214.16665z" opacity="undefined" stroke-width="2" fill="none"/>
  <path stroke="#3f007f" id="svg_37" d="m400,521.11112c-122.16083,0 -221.11111,-98.95027 -221.11111,-221.1111c0,-122.16083 98.95028,-221.11111 221.11111,-221.11111c122.16083,0 221.11111,98.95028 221.11111,221.11111c0,122.16083 -98.95028,221.1111 -221.11111,221.1111z" opacity="undefined" stroke-width="2" fill="none"/>
  <path id="svg_1" d="m400.58822,529.99999c-127.07182,0 -230,-102.92818 -230,-230c0,-127.07182 102.92818,-230 230,-230c127.07182,0 230,102.92818 230,230c0,127.07182 -102.92818,230 -230,230z" opacity="undefined" stroke-width="5" stroke="#3f007f" fill="none"/>
  <path stroke="#3f007f" id="svg_8" d="m401,443.49997c-79.28177,0 -143.5,-64.21823 -143.5,-143.49999c0,-79.28177 64.21823,-143.5 143.5,-143.5c79.28177,0 143.5,64.21823 143.5,143.5c0,79.28176 -64.21823,143.49999 -143.5,143.49999z" opacity="undefined" stroke-width="5" fill="url(#svg_121)"/>
  <path stroke="#3f007f" id="svg_5" d="m189.21053,230.42226l161.02997,0l49.7595,-152.9778l49.75953,152.9778l161.02995,0l-130.27575,94.5444l49.76208,152.9778l-130.2758,-94.54697l-130.27578,94.54697l49.76209,-152.9778l-130.27579,-94.5444z" stroke-width="5" fill="none"/>
  <text transform="rotate(-38 294.819 165.111)" font-weight="bold" xml:space="preserve" text-anchor="start" font-family="Noto Sans JP" font-size="24" id="svg_9" y="173.11111" x="268.82221" stroke="#3f007f" fill="#d4aaff">OOP</text>
  <text transform="rotate(38 507.252 166.288)" font-weight="bold" xml:space="preserve" text-anchor="start" font-family="Noto Sans JP" font-size="24" id="svg_14" y="174.28758" x="481.83528" stroke="#5f00bf" fill="#d4aaff">TTH</text>
  <text transform="rotate(108 564.821 351)" font-weight="bold" xml:space="preserve" text-anchor="start" font-family="Noto Sans JP" font-size="24" id="svg_15" y="358.99999" x="530.15555" stroke="#5f00bf" fill="#d4aaff">KTDC</text>
  <text transform="rotate(-108 241.216 354.477)" style="cursor: move;" font-weight="bold" xml:space="preserve" text-anchor="start" font-family="Noto Sans JP" font-size="24" id="svg_16" y="362.47712" x="204.55424" stroke="#5f00bf" fill="#d4aaff">HTMT</text>
  <text transform="rotate(180 400.673 470.778)" font-weight="bold" xml:space="preserve" text-anchor="start" font-family="Noto Sans JP" font-size="24" id="svg_17" y="478.77777" x="378.00349" stroke="#5f00bf" fill="#d4aaff">TD1</text>
  <line id="svg_39" y2="484.44435" x2="266.22216" y1="228.88882" x1="181.77773" stroke-width="2" stroke="#3f007f" fill="none"/>
  <line id="svg_40" y2="485.55546" x2="266.22216" y1="484.44435" x1="535.11102" stroke-width="2" stroke="#3f007f" fill="none"/>
  <line id="svg_41" y2="531.66657" x2="505.66658" y1="531.66657" x1="505.11103" stroke-width="2" stroke="#3f007f" fill="none"/>
  <line id="svg_42" y2="484.9999" x2="535.66658" y1="227.77771" x1="617.88879" stroke-width="2" stroke="#3f007f" fill="none"/>
  <line id="svg_43" y2="69.44439" x2="399.55548" y1="227.22215" x1="181.77773" stroke-width="2" stroke="#3f007f" fill="none"/>
  <line id="svg_44" y2="68.33328" x2="401.7777" y1="228.33326" x1="617.33324" stroke-width="2" stroke="#3f007f" fill="none"/>
  <path id="svg_45" d="m405.92938,238.91377l-0.04442,0.03227l0.01698,-0.0522l-0.04441,-0.03227l0.0549,0.00001l0.01459,-0.04489l0.00238,-0.00729l0.01695,0.05217l0.05491,0l-0.04443,0.03227l0.01699,0.05222l-0.04443,-0.03229l0,0z" stroke-width="0" stroke="#3f007f" fill="#b200ff"/>
  <path stroke="#3f007f" id="svg_46" d="m470.05158,201.32489l-0.04442,0.03227l0.01698,-0.0522l-0.04441,-0.03227l0.0549,0.00001l0.01459,-0.04489l0.00238,-0.00729l0.01695,0.05217l0.05491,0l-0.04443,0.03227l0.01699,0.05222l-0.04443,-0.03229l0,0z" stroke-width="0" fill="#b200ff"/>
  <path id="svg_48" d="m353.64604,178.52767l-0.04442,0.03227l0.01698,-0.0522l-0.04441,-0.03227l0.0549,0.00001l0.01459,-0.04489l0.00238,-0.00729l0.01695,0.05217l0.05491,0l-0.04443,0.03227l0.01699,0.05222l-0.04443,-0.03229l0,0z" stroke-width="5" stroke="#3f007f" fill="url(#svg_13)"/>
  <path transform="rotate(-21 330.868 188.492)" id="svg_49" d="m330.86826,188.52767l-0.04442,0.03227l0.01698,-0.0522l-0.04441,-0.03227l0.0549,0.00001l0.01459,-0.04489l0.00238,-0.00729l0.01695,0.05217l0.05491,0l-0.04443,0.03227l0.01698,0.05221l-0.04443,-0.03228l0,0z" stroke-width="5" stroke="#3f007f" fill="url(#svg_13)"/>
  <path id="svg_50" d="m298.64604,216.861l-0.04442,0.03227l0.01698,-0.0522l-0.04441,-0.03227l0.0549,0.00001l0.01459,-0.04489l0.00238,-0.00729l0.01695,0.05217l0.05491,0l-0.04443,0.03227l0.01698,0.05221l-0.04443,-0.03228l0,0z" stroke-width="5" stroke="#3f007f" fill="url(#svg_13)"/>
  <path transform="rotate(55 345.868 200.714)" stroke="#3f007f" id="svg_51" d="m345.86826,200.74989l-0.04442,0.03227l0.01698,-0.0522l-0.04441,-0.03227l0.0549,0.00001l0.01459,-0.04489l0.00238,-0.00729l0.01695,0.05217l0.05491,0l-0.04443,0.03227l0.01698,0.05221l-0.04443,-0.03228l0,0z" stroke-width="5" fill="url(#svg_52)"/>
  <path transform="rotate(10 319.234 206.269)" id="svg_53" d="m319.23428,206.30545l-0.04442,0.03227l0.01698,-0.0522l-0.04441,-0.03227l0.05489,0.00001l0.01459,-0.04489l0.00238,-0.00729l0.01695,0.05217l0.05491,0l-0.04443,0.03227l0.01699,0.05221l-0.04443,-0.03228l0,0z" stroke-width="5" stroke="#3f007f" fill="url(#svg_13)"/>
  <path transform="rotate(180 400 306.111)" stroke="#3f007f" id="svg_75" d="m399.99069,332.9922l-33.13147,24.06917l12.66484,-38.93433l-33.12401,-24.06917l40.94444,0.00746l10.88222,-33.4783l1.77517,-5.43738l12.64247,38.90822l40.95563,0l-33.13893,24.06917l12.66857,38.94552l-33.13893,-24.08036l0,0z" stroke-width="5" fill="url(#svg_13)"/>
  <ellipse ry="18.05555" rx="18.05555" id="svg_63" cy="299.99999" cx="400" stroke-width="3" stroke="#3f007f" fill="url(#svg_13)"/>
  <path stroke="#3f007f" id="svg_76" d="m399.85668,365.94979l-101.8189,73.96884l38.92132,-119.6521l-101.79598,-73.96884l125.82955,0.02292l33.44299,-102.88476l5.4554,-16.71004l38.85255,119.57188l125.86393,0l-101.84182,73.96884l38.93278,119.68649l-101.84182,-74.00322l0,0z" stroke-width="5" fill="none"/>
  <path transform="rotate(-85 333.646 219.603)" stroke="#3f007f" id="svg_78" d="m333.64604,219.63878l-0.04442,0.03227l0.01698,-0.0522l-0.04441,-0.03227l0.0549,0.00001l0.01459,-0.04489l0.00238,-0.00729l0.01695,0.05217l0.05491,0l-0.04443,0.03227l0.01698,0.05221l-0.04443,-0.03228l0,0z" stroke-width="5" fill="url(#svg_79)"/>
  <path transform="rotate(-38 270.509 309.015)" id="svg_80" d="m270.50872,309.05058l-0.04442,0.03227l0.01698,-0.0522l-0.04441,-0.03227l0.0549,0.00001l0.01459,-0.04489l0.00238,-0.00729l0.01695,0.05217l0.05491,0l-0.04443,0.03227l0.01698,0.05221l-0.04443,-0.03228l0,0z" stroke-width="5" stroke="#3f007f" fill="url(#svg_13)"/>
  <path transform="rotate(55 481.424 193.492)" stroke="#3f007f" id="svg_81" d="m481.42381,193.52767l-0.04442,0.03227l0.01698,-0.0522l-0.04441,-0.03227l0.0549,0.00001l0.01459,-0.04489l0.00238,-0.00729l0.01695,0.05217l0.05491,0l-0.04443,0.03227l0.01698,0.05221l-0.04443,-0.03228l0,0z" stroke-width="5" fill="url(#svg_82)"/>
  <path transform="rotate(10 456.032 211.139)" id="svg_83" d="m456.03164,211.17472l-0.04442,0.03227l0.01698,-0.0522l-0.04441,-0.03227l0.05489,0.00001l0.01459,-0.04489l0.00238,-0.00729l0.01695,0.05217l0.05491,0l-0.04443,0.03227l0.01699,0.05221l-0.04443,-0.03228l0,0z" stroke-width="5" stroke="#3f007f" fill="url(#svg_13)"/>
  <path transform="rotate(25 497.731 213.72)" stroke="#3f007f" id="svg_84" d="m497.73098,213.75642l-0.04442,0.03227l0.01698,-0.0522l-0.04441,-0.03227l0.05489,0.00001l0.01459,-0.04489l0.00238,-0.00729l0.01695,0.05217l0.05491,0l-0.04443,0.03227l0.01699,0.05221l-0.04443,-0.03228l0,0z" stroke-width="5" fill="url(#svg_13)"/>
  <path transform="rotate(10 445.313 177.935)" id="svg_85" d="m445.31269,177.97211l-0.04442,0.03227l0.01698,-0.0522l-0.04441,-0.03227l0.05489,0.00001l0.01459,-0.04489l0.00238,-0.00729l0.01695,0.05217l0.05491,0l-0.04443,0.03227l0.01699,0.05221l-0.04443,-0.03228l0,0z" stroke-width="5" stroke="#3f007f" fill="url(#svg_13)"/>
  <path transform="rotate(-21 475.77 217.119)" id="svg_86" d="m475.77021,217.15512l-0.04442,0.03227l0.01698,-0.0522l-0.04441,-0.03227l0.0549,0.00001l0.01459,-0.04489l0.00238,-0.00729l0.01695,0.05217l0.05491,0l-0.04443,0.03227l0.01698,0.05221l-0.04443,-0.03228l0,0z" stroke-width="5" stroke="#3f007f" fill="url(#svg_13)"/>
  <path transform="rotate(-21 330.868 188.492)" id="svg_87" d="m330.86826,188.52767l-0.04442,0.03227l0.01698,-0.0522l-0.04441,-0.03227l0.0549,0.00001l0.01459,-0.04489l0.00238,-0.00729l0.01695,0.05217l0.05491,0l-0.04443,0.03227l0.01698,0.05221l-0.04443,-0.03228l0,0z" stroke-width="5" stroke="#3f007f" fill="url(#svg_13)"/>
  <path transform="rotate(-21 287.927 323.198)" id="svg_88" d="m287.92707,323.23359l-0.04442,0.03227l0.01698,-0.0522l-0.04441,-0.03227l0.0549,0.00001l0.01459,-0.04489l0.00238,-0.00729l0.01695,0.05217l0.05491,0l-0.04443,0.03227l0.01698,0.05221l-0.04443,-0.03228l0,0z" stroke-width="5" stroke="#3f007f" fill="url(#svg_13)"/>
  <path transform="rotate(-85 274.822 334.309)" stroke="#3f007f" id="svg_90" d="m274.82249,334.3447l-0.04442,0.03227l0.01698,-0.0522l-0.04441,-0.03227l0.0549,0.00001l0.01459,-0.04489l0.00238,-0.00729l0.01695,0.05217l0.05491,0l-0.04443,0.03227l0.01698,0.05221l-0.04443,-0.03228l0,0z" stroke-width="5" fill="url(#svg_79)"/>
  <path transform="rotate(-21 286.947 349.472)" id="svg_91" d="m286.94662,349.5081l-0.04442,0.03227l0.01698,-0.0522l-0.04441,-0.03227l0.0549,0.00001l0.01459,-0.04489l0.00238,-0.00729l0.01695,0.05217l0.05491,0l-0.04443,0.03227l0.01698,0.05221l-0.04443,-0.03228l0,0z" stroke-width="5" stroke="#3f007f" fill="url(#svg_13)"/>
  <path transform="rotate(-38 461.686 193.133)" id="svg_92" d="m461.68525,193.16819l-0.04442,0.03227l0.01698,-0.0522l-0.04441,-0.03227l0.0549,0.00001l0.01459,-0.04489l0.00238,-0.00729l0.01695,0.05217l0.05491,0l-0.04443,0.03227l0.01698,0.05221l-0.04443,-0.03228l0,0z" stroke-width="5" stroke="#3f007f" fill="url(#svg_13)"/>
  <path transform="rotate(25 304.202 340.779)" stroke="#3f007f" id="svg_93" d="m304.20152,340.81528l-0.04442,0.03227l0.01698,-0.0522l-0.04441,-0.03227l0.05489,0.00001l0.01459,-0.04489l0.00238,-0.00729l0.01695,0.05217l0.05491,0l-0.04443,0.03227l0.01699,0.05221l-0.04443,-0.03228l0,0z" stroke-width="5" fill="url(#svg_13)"/>
  <path id="svg_94" d="m290.99898,369.21398l-0.04442,0.03227l0.01698,-0.0522l-0.04441,-0.03227l0.0549,0.00001l0.01459,-0.04489l0.00238,-0.00729l0.01695,0.05217l0.05491,0l-0.04443,0.03227l0.01698,0.05221l-0.04443,-0.03228l0,0z" stroke-width="5" stroke="#3f007f" fill="url(#svg_13)"/>
  <path transform="rotate(10 319.234 206.269)" id="svg_95" d="m319.23428,206.30545l-0.04442,0.03227l0.01698,-0.0522l-0.04441,-0.03227l0.05489,0.00001l0.01459,-0.04489l0.00238,-0.00729l0.01695,0.05217l0.05491,0l-0.04443,0.03227l0.01699,0.05221l-0.04443,-0.03228l0,0z" stroke-width="5" stroke="#3f007f" fill="url(#svg_13)"/>
  <path transform="rotate(10 529.822 305.093)" id="svg_96" d="m529.82258,305.129l-0.04442,0.03227l0.01698,-0.0522l-0.04441,-0.03227l0.05489,0.00001l0.01459,-0.04489l0.00238,-0.00729l0.01695,0.05217l0.05491,0l-0.04443,0.03227l0.01699,0.05221l-0.04443,-0.03228l0,0z" stroke-width="5" stroke="#3f007f" fill="url(#svg_13)"/>
  <path transform="rotate(10 373.352 423.328)" id="svg_97" d="m373.35194,423.36433l-0.04442,0.03227l0.01698,-0.0522l-0.04441,-0.03227l0.05489,0.00001l0.01459,-0.04489l0.00238,-0.00729l0.01695,0.05217l0.05491,0l-0.04443,0.03227l0.01699,0.05221l-0.04443,-0.03228l0,0z" stroke-width="5" stroke="#3f007f" fill="url(#svg_13)"/>
  <path transform="rotate(-85 397.764 404.897)" stroke="#3f007f" id="svg_98" d="m397.76371,404.93295l-0.04442,0.03227l0.01698,-0.0522l-0.04441,-0.03227l0.0549,0.00001l0.01459,-0.04489l0.00238,-0.00729l0.01695,0.05217l0.05491,0l-0.04443,0.03227l0.01698,0.05221l-0.04443,-0.03228l0,0z" stroke-width="5" fill="url(#svg_79)"/>
  <path transform="rotate(55 416.718 416.433)" stroke="#3f007f" id="svg_99" d="m416.71791,416.46891l-0.04442,0.03227l0.01698,-0.0522l-0.04441,-0.03227l0.0549,0.00001l0.01459,-0.04489l0.00238,-0.00729l0.01695,0.05217l0.05491,0l-0.04443,0.03227l0.01698,0.05221l-0.04443,-0.03228l0,0z" stroke-width="5" fill="url(#svg_82)"/>
  <path transform="rotate(-21 499.692 343.198)" id="svg_100" d="m499.69184,343.2336l-0.04442,0.03227l0.01698,-0.0522l-0.04441,-0.03227l0.0549,0.00001l0.01459,-0.04489l0.00238,-0.00729l0.01695,0.05217l0.05491,0l-0.04443,0.03227l0.01698,0.05221l-0.04443,-0.03228l0,0z" stroke-width="5" stroke="#3f007f" fill="url(#svg_13)"/>
  <path transform="rotate(145 510.117 325.485)" stroke="#3f007f" id="svg_101" d="m510.11668,325.52117l-0.04442,0.03227l0.01698,-0.0522l-0.04441,-0.03227l0.0549,0.00001l0.01459,-0.04489l0.00238,-0.00729l0.01695,0.05217l0.05491,0l-0.04443,0.03227l0.01698,0.05221l-0.04443,-0.03228l0,0z" stroke-width="5" fill="url(#svg_79)"/>
  <path transform="rotate(10 397.208 428.786)" id="svg_102" d="m397.20809,428.82185l-0.04442,0.03227l0.01698,-0.0522l-0.04441,-0.03227l0.05489,0.00001l0.01459,-0.04489l0.00238,-0.00729l0.01695,0.05217l0.05491,0l-0.04443,0.03227l0.01699,0.05221l-0.04443,-0.03228l0,0z" stroke-width="5" stroke="#3f007f" fill="url(#svg_13)"/>
  <path id="svg_103" d="m433.64606,427.35126l-0.04442,0.03227l0.01698,-0.0522l-0.04441,-0.03227l0.05489,0.00001l0.01459,-0.04489l0.00238,-0.00729l0.01695,0.05217l0.05491,0l-0.04443,0.03227l0.01699,0.05221l-0.04443,-0.03228l0,0z" stroke-width="5" stroke="#3f007f" fill="url(#svg_13)"/>
  <path transform="rotate(10 527.666 334.406)" id="svg_104" d="m527.66566,334.44274l-0.04442,0.03227l0.01698,-0.0522l-0.04441,-0.03227l0.05489,0.00001l0.01459,-0.04489l0.00238,-0.00729l0.01695,0.05217l0.05491,0l-0.04443,0.03227l0.01699,0.05221l-0.04443,-0.03228l0,0z" stroke-width="5" stroke="#3f007f" fill="url(#svg_13)"/>
  <path transform="rotate(55 509.071 368.786)" stroke="#3f007f" id="svg_105" d="m509.07088,368.82184l-0.04442,0.03227l0.01698,-0.0522l-0.04441,-0.03227l0.0549,0.00001l0.01459,-0.04489l0.00238,-0.00729l0.01695,0.05217l0.05491,0l-0.04443,0.03227l0.01698,0.05221l-0.04443,-0.03228l0,0z" stroke-width="5" fill="url(#svg_82)"/>
  <path transform="rotate(25 518.907 350.779)" stroke="#3f007f" id="svg_106" d="m518.90746,350.81529l-0.04442,0.03227l0.01698,-0.0522l-0.04441,-0.03227l0.05489,0.00001l0.01459,-0.04489l0.00238,-0.00729l0.01695,0.05217l0.05491,0l-0.04443,0.03227l0.01699,0.05221l-0.04443,-0.03228l0,0z" stroke-width="5" fill="url(#svg_13)"/>
  <ellipse transform="rotate(15 335.118 278.824)" stroke-width="0" ry="16.47059" rx="36.17648" id="svg_111" cy="278.82369" cx="335.11784" stroke="#3f007f" fill="url(#svg_113)"/>
  <ellipse transform="rotate(90 400 234.118)" stroke-width="0" ry="16.47059" rx="36.17648" id="svg_114" cy="234.11779" cx="400" stroke="#3f007f" fill="url(#svg_113)"/>
  <ellipse transform="rotate(165 468.059 278.824)" stroke-width="0" ry="16.47059" rx="36.17648" id="svg_115" cy="278.82369" cx="468.05905" stroke="#3f007f" fill="url(#svg_113)"/>
  <ellipse transform="rotate(-130 440.412 354.706)" stroke-width="0" ry="16.47059" rx="36.17648" id="svg_116" cy="354.70606" cx="440.41199" stroke="#3f007f" fill="url(#svg_113)"/>
  <ellipse transform="rotate(-50 358.647 355.294)" stroke-width="0" ry="16.47059" rx="36.17648" id="svg_117" cy="355.2943" cx="358.64726" stroke="#3f007f" fill="url(#svg_113)"/>
  <path stroke="null" id="svg_123" d="m414.51948,299.99833l-5.85862,2.0842l0,-4.16618l5.85862,2.08198zm-4.25385,-10.26673l-2.66906,5.61779l-2.9454,-2.94762l5.61446,-2.67017zm-10.26562,-4.25163l2.08309,5.85973l-4.16729,0l2.0842,-5.85973zm-10.26673,4.25163l5.61668,2.67017l-2.94651,2.94762l-2.67017,-5.61779zm-4.25274,10.26673l5.85973,-2.08198l0,4.16618l-5.85973,-2.0842zm4.25274,10.26673l2.67017,-5.61557l2.94651,2.94651l-5.61668,2.66906l0,0zm10.26673,4.25496l-2.0842,-5.86084l4.16729,0l-2.08309,5.86084zm10.26562,-4.25496l-5.61557,-2.66795l2.9454,-2.94651l2.67017,5.61446zm-17.5248,-10.26673l0,0c0,-4.00859 3.25059,-7.25918 7.26029,-7.25918c4.00859,0 7.26029,3.25059 7.26029,7.25918c0,4.0097 -3.2517,7.26029 -7.26029,7.26029c-4.01081,0 -7.26029,-3.25059 -7.26029,-7.26029l0,0z" stroke-width="5" fill="#3f007f"/>
  <path id="svg_124" d="m206.11083,58.53624l-0.0264,0.00939l0,-0.01877l0.0264,0.00938zm-0.01917,-0.04626l-0.01203,0.02531l-0.01327,-0.01328l0.0253,-0.01203zm-0.04625,-0.01916l0.00939,0.0264l-0.01878,0l0.00939,-0.0264zm-0.04626,0.01916l0.02531,0.01203l-0.01328,0.01328l-0.01203,-0.02531zm-0.01916,0.04626l0.0264,-0.00938l0,0.01877l-0.0264,-0.00939zm0.01916,0.04626l0.01203,-0.0253l0.01328,0.01328l-0.02531,0.01203l0,0zm0.04626,0.01917l-0.00939,-0.02641l0.01878,0l-0.00939,0.02641zm0.04625,-0.01917l-0.0253,-0.01202l0.01327,-0.01328l0.01203,0.0253zm-0.07896,-0.04626l0,0c0,-0.01806 0.01465,-0.03271 0.03271,-0.03271c0.01806,0 0.03271,0.01465 0.03271,0.03271c0,0.01807 -0.01465,0.03271 -0.03271,0.03271c-0.01807,0 -0.03271,-0.01465 -0.03271,-0.03271l0,0z" stroke-width="5" stroke="null" fill="#3f007f"/>
 </g>
</svg>